<svg xmlns="http://www.w3.org/2000/svg" viewBox="0 0 125.71 54"><defs><style>.cls-1{fill:red;}.cls-2{fill:#fff;}</style></defs><title>자산 1</title><g id="레이어_2" data-name="레이어 2"><g id="레이어_1-2" data-name="레이어 1"><circle class="cls-1" cx="121.68" cy="4.03" r="4.03"/><path class="cls-2" d="M0,30.59l.09-2c.23-4.8,3.72-7.4,8.68-8s8.24,1.18,8,6l-.09,2C16.48,33.38,13,36,8,36.55S-.21,35.39,0,30.59ZM5,48.31c-3.33.4-4.16-.65-4-3.82l.14-3.17A3.4,3.4,0,0,1,4.36,38c1.66-.2,2.93.59,2.83,2.58l-.1,2.16c0,.65.12.72.77.64l15.57-1.88c1.81-.21,2.44.8,2.38,2a2.69,2.69,0,0,1-2.6,2.62Zm5.84-18.79L11,27.06c.07-1.63-.93-2.28-2.41-2.1a2.73,2.73,0,0,0-2.64,2.71l-.12,2.46c-.08,1.66.93,2.24,2.42,2.06A2.67,2.67,0,0,0,10.87,29.52ZM20,21.75a3.37,3.37,0,0,1,3.05-3.28,2.3,2.3,0,0,1,2.77,2.58l-.21,4.47.92-.11c1.82-.22,2.28,1.11,2.23,2.3a2.8,2.8,0,0,1-2.47,2.86l-.92.11L25,39.06l-5.82.71Z"/><path class="cls-2" d="M33.4,43.71c-3.86.47-4.39-.24-4.22-3.94L30,23.09c.18-3.7.78-4.51,4.64-5l6.33-.76c1.72-.21,2.2.88,2.14,2.16a2.57,2.57,0,0,1-2.37,2.7l-4.19.5c-.8.1-.93.23-1,1l-.66,14.05c0,.8.08.9.88.8L40.58,38c1.72-.21,2.2.89,2.14,2.16a2.56,2.56,0,0,1-2.37,2.7Zm11-11.93-3.45.41A2,2,0,0,1,38.56,30a2.92,2.92,0,0,1,2.62-2.85l3.45-.42L45,18.33a2.9,2.9,0,0,1,2.64-2.83,2.07,2.07,0,0,1,2.53,2.2L49,43l-5.17.62Zm7.19-14.24a3,3,0,0,1,2.76-2.84,2.07,2.07,0,0,1,2.53,2.2L55.69,42.2l-5.29.64Z"/><path class="cls-2" d="M83.43,33.31a2,2,0,0,1,2.44,2.18,2.88,2.88,0,0,1-2.67,2.8L60.5,41a2,2,0,0,1-2.44-2.18,2.88,2.88,0,0,1,2.67-2.8ZM78.85,18.16c0-.38-.08-.81-.76-.73L62.64,19.29a1.88,1.88,0,0,1-2.18-2.09,2.85,2.85,0,0,1,2.4-2.65L80,12.48c4.1-.49,5.17,1.24,5,4.05l-.3,6.37L67.16,25c-.69.08-1,.44-1,1v.14c0,.54.29.76,1,.68l16.1-1.94A1.81,1.81,0,0,1,85.35,27,2.63,2.63,0,0,1,83,29.54L65.34,31.67c-3.86.46-5.82-1.33-5.66-4.53l0-.57c.15-3.2,2.29-5.4,6.15-5.87l13-1.56Z"/><path class="cls-2" d="M93.32,14.59l.06-1.33a3,3,0,0,1,2.81-3.08C97.7,10,99,10.7,98.88,12.6l-.06,1.33c0,1-.15,1.87-.28,2.74,3.44.38,5.15,2.89,4.46,8.21l-5.29.64c.44-1.88.22-3.35-.66-4a9.43,9.43,0,0,1-6,5.26c-1.5.41-2.68-.24-2.83-1.46a2.72,2.72,0,0,1,1.62-3C92,21.24,93.12,18.8,93.32,14.59Zm.7,23c-3.33.4-4.17-.65-4-3.82l.16-3.29a3.39,3.39,0,0,1,3.19-3.3c1.67-.2,2.93.59,2.84,2.57l-.11,2.31c0,.66.11.73.76.65l16.52-2c1.81-.21,2.45.8,2.39,2a2.68,2.68,0,0,1-2.6,2.58Zm10.4-20.32-1.4.17c-1.45.17-2.11-.9-2-2.14a2.57,2.57,0,0,1,2.28-2.66l1.39-.17.07-1.33a2.9,2.9,0,0,1,2.64-2.83,2,2,0,0,1,2.44,2.21L109,28.35l-5.08.61Zm6.64-6.9a3,3,0,0,1,2.74-2.83,2,2,0,0,1,2.49,2.2l-.83,17.83-5.23.64Z"/><path class="cls-2" d="M78.82,51a.78.78,0,0,1,1,.86,1.14,1.14,0,0,1-1,1.1L69.85,54a.77.77,0,0,1-1-.85,1.14,1.14,0,0,1,1-1.11Zm-3.14-5.83c2-.19,3.91.93,4,3.86l-2.36.28a2.19,2.19,0,0,0-2.64-2.15,7.19,7.19,0,0,1-4.36,3,.85.85,0,0,1-1.07-.76,1.23,1.23,0,0,1,.89-1.24,5.17,5.17,0,0,0,3.36-4A1.41,1.41,0,0,1,74.86,43a.92.92,0,0,1,1,1.09A5.14,5.14,0,0,1,75.68,45.13Z"/><path class="cls-2" d="M83,50.44v-.2l-1.47.18c-.7.08-1-.31-.93-.79a1.08,1.08,0,0,1,1-1.06l8.93-1.08a.74.74,0,0,1,.93.83,1,1,0,0,1-1,1l-1,.12-.12,2.46-2.36.28.12-2.46L85.31,50v.19a3,3,0,0,1-2.62,2.77c-.64.13-1.16-.07-1.22-.58a.94.94,0,0,1,.74-1A1,1,0,0,0,83,50.44Zm7.46-9.3a.64.64,0,0,1,.77.73.9.9,0,0,1-.84.89l-6.32.76a.31.31,0,0,0-.32.31l0,.27,6.55-.79c.59-.07.8.29.78.68a.9.9,0,0,1-.85.88l-6.55.79v.25c0,.21.09.27.3.24l6.49-.78a.62.62,0,0,1,.77.7.9.9,0,0,1-.85.89l-7.48.9c-1.23.15-1.66-.28-1.6-1.42l.12-2.58A1.69,1.69,0,0,1,83.16,42Z"/><path class="cls-2" d="M94.26,50.81c-1.51.19-1.77-.14-1.7-1.59l.3-6.41c.07-1.45.36-1.84,1.87-2l3.74-.45c.67-.08.87.43.85.87a1.09,1.09,0,0,1-.95,1.09l-2.88.35c-.21,0-.31.11-.32.37l-.25,5.45c0,.27.07.33.28.3l3.62-.43c.67-.08.85.43.83.87a1.05,1.05,0,0,1-.92,1.07Zm6.08-.27.45-9.74A1.36,1.36,0,0,1,102,39.51a.92.92,0,0,1,1.11,1l-.46,9.74Z"/><path class="cls-2" d="M108.07,47.51l.11-2.17-.88.11a2.4,2.4,0,0,1-2.9-2.66v-.26a3.58,3.58,0,0,1,3.19-3.41l4.11-.49a2.41,2.41,0,0,1,2.91,2.67v.25a3.57,3.57,0,0,1-3.19,3.4l-.87.11-.1,2.16,3.27-.39a.74.74,0,0,1,.94.82,1.1,1.1,0,0,1-1,1.06l-8.93,1.07a.74.74,0,0,1-.94-.82,1.09,1.09,0,0,1,1-1.05Zm4.13-5.94c0-.64-.43-1.07-1.2-1l-2.86.35a1.4,1.4,0,0,0-1.31,1.28l0,.3c0,.64.44,1.06,1.21,1l2.86-.34a1.4,1.4,0,0,0,1.31-1.28Z"/></g></g></svg>